<svg width="1200" height="630" viewBox="0 0 1200 630" fill="none" xmlns="http://www.w3.org/2000/svg">
  <defs>
    <linearGradient id="bgGrad" x1="0%" y1="0%" x2="100%" y2="100%">
      <stop offset="0%" style="stop-color:#1e293b;stop-opacity:1" />
      <stop offset="100%" style="stop-color:#0f172a;stop-opacity:1" />
    </linearGradient>
    <linearGradient id="primaryGrad" x1="0%" y1="0%" x2="100%" y2="100%">
      <stop offset="0%" style="stop-color:#3b82f6;stop-opacity:1" />
      <stop offset="100%" style="stop-color:#1d4ed8;stop-opacity:1" />
    </linearGradient>
    <linearGradient id="secondaryGrad" x1="0%" y1="0%" x2="100%" y2="100%">
      <stop offset="0%" style="stop-color:#10b981;stop-opacity:1" />
      <stop offset="100%" style="stop-color:#059669;stop-opacity:1" />
    </linearGradient>
  </defs>
  
  <!-- Background -->
  <rect width="1200" height="630" fill="url(#bgGrad)"/>
  
  <!-- Grid pattern -->
  <defs>
    <pattern id="grid" width="40" height="40" patternUnits="userSpaceOnUse">
      <path d="M 40 0 L 0 0 0 40" fill="none" stroke="#334155" stroke-width="1" opacity="0.3"/>
    </pattern>
  </defs>
  <rect width="1200" height="630" fill="url(#grid)"/>
  
  <!-- Main icon centered -->
  <g transform="translate(300, 200)">
    <!-- Larger version of your icon -->
    <g transform="scale(1.8)">
      <!-- Central microphone -->
      <g transform="translate(64, 64)">
        <!-- Mic body -->
        <rect x="-12" y="-28" width="24" height="36" rx="12" fill="#ffffff" stroke="#d1d5db" stroke-width="2"/>
        
        <!-- Mesh pattern -->
        <g opacity="0.6">
          <line x1="-8" y1="-20" x2="8" y2="-20" stroke="#9ca3af" stroke-width="1"/>
          <line x1="-8" y1="-16" x2="8" y2="-16" stroke="#9ca3af" stroke-width="1"/>
          <line x1="-8" y1="-12" x2="8" y2="-12" stroke="#9ca3af" stroke-width="1"/>
          <line x1="-8" y1="-8" x2="8" y2="-8" stroke="#9ca3af" stroke-width="1"/>
          <line x1="-8" y1="-4" x2="8" y2="-4" stroke="#9ca3af" stroke-width="1"/>
          <line x1="-8" y1="0" x2="8" y2="0" stroke="#9ca3af" stroke-width="1"/>
        </g>
        
        <!-- AI indicator badge -->
        <circle cx="8" cy="-20" r="6" fill="url(#primaryGrad)"/>
        <text x="8" y="-17" text-anchor="middle" fill="#ffffff" font-family="Arial" font-size="7" font-weight="bold">AI</text>
        
        <!-- Stand -->
        <rect x="-2" y="8" width="4" height="15" fill="#6b7280"/>
        <ellipse cx="0" cy="23" rx="16" ry="3" fill="#374151"/>
      </g>
      
      <!-- Sound waves -->
      <g stroke-linecap="round">
        <!-- Left waves -->
        <path d="M 25 64 Q 35 54 25 64 Q 35 74 25 64" stroke="url(#secondaryGrad)" stroke-width="3" fill="none"/>
        <path d="M 18 64 Q 32 48 18 64 Q 32 80 18 64" stroke="url(#secondaryGrad)" stroke-width="2" fill="none" opacity="0.7"/>
        <path d="M 12 64 Q 30 42 12 64 Q 30 86 12 64" stroke="url(#secondaryGrad)" stroke-width="1.5" fill="none" opacity="0.5"/>
        
        <!-- Right waves -->
        <path d="M 103 64 Q 93 54 103 64 Q 93 74 103 64" stroke="url(#secondaryGrad)" stroke-width="3" fill="none"/>
        <path d="M 110 64 Q 96 48 110 64 Q 96 80 110 64" stroke="url(#secondaryGrad)" stroke-width="2" fill="none" opacity="0.7"/>
        <path d="M 116 64 Q 98 42 116 64 Q 98 86 116 64" stroke="url(#secondaryGrad)" stroke-width="1.5" fill="none" opacity="0.5"/>
      </g>
    </g>
  </g>
  
  <!-- Title and description -->
  <text x="600" y="240" text-anchor="middle" fill="#ffffff" font-family="Arial, sans-serif" font-size="56" font-weight="bold">AI Voice Proxy</text>
  <text x="600" y="300" text-anchor="middle" fill="#94a3b8" font-family="Arial, sans-serif" font-size="28">Real-time AI voice enhancement for video calls</text>
  
  <!-- Features -->
  <g transform="translate(600, 380)">
    <text x="0" y="0" text-anchor="middle" fill="#10b981" font-family="Arial, sans-serif" font-size="20" font-weight="bold">🎙️ Voice Cloning  •  🧠 AI Enhancement  •  🏠 100% Local</text>
    <text x="0" y="40" text-anchor="middle" fill="#64748b" font-family="Arial, sans-serif" font-size="18">Perfect for Microsoft Teams, Zoom, Slack, and more</text>
  </g>
  
  <!-- Tech stack badges -->
  <g transform="translate(350, 500)">
    <rect x="0" y="0" width="100" height="30" rx="15" fill="url(#primaryGrad)"/>
    <text x="50" y="20" text-anchor="middle" fill="#ffffff" font-family="Arial, sans-serif" font-size="14" font-weight="bold">TypeScript</text>
    
    <rect x="120" y="0" width="80" height="30" rx="15" fill="url(#secondaryGrad)"/>
    <text x="160" y="20" text-anchor="middle" fill="#ffffff" font-family="Arial, sans-serif" font-size="14" font-weight="bold">Node.js</text>
    
    <rect x="220" y="0" width="80" height="30" rx="15" fill="#f59e0b"/>
    <text x="260" y="20" text-anchor="middle" fill="#ffffff" font-family="Arial, sans-serif" font-size="14" font-weight="bold">Whisper</text>
    
    <rect x="320" y="0" width="70" height="30" rx="15" fill="#8b5cf6"/>
    <text x="355" y="20" text-anchor="middle" fill="#ffffff" font-family="Arial, sans-serif" font-size="14" font-weight="bold">Ollama</text>
    
    <rect x="410" y="0" width="90" height="30" rx="15" fill="#ef4444"/>
    <text x="455" y="20" text-anchor="middle" fill="#ffffff" font-family="Arial, sans-serif" font-size="14" font-weight="bold">Coqui TTS</text>
  </g>
</svg>