<svg width="32" height="32" viewBox="0 0 32 32" fill="none" xmlns="http://www.w3.org/2000/svg">
  <defs>
    <linearGradient id="cleanBg" x1="0%" y1="0%" x2="100%" y2="100%">
      <stop offset="0%" style="stop-color:#f8fafc;stop-opacity:1" />
      <stop offset="100%" style="stop-color:#e2e8f0;stop-opacity:1" />
    </linearGradient>
    <linearGradient id="primaryGrad" x1="0%" y1="0%" x2="100%" y2="100%">
      <stop offset="0%" style="stop-color:#3b82f6;stop-opacity:1" />
      <stop offset="100%" style="stop-color:#1d4ed8;stop-opacity:1" />
    </linearGradient>
    <linearGradient id="secondaryGrad" x1="0%" y1="0%" x2="100%" y2="100%">
      <stop offset="0%" style="stop-color:#10b981;stop-opacity:1" />
      <stop offset="100%" style="stop-color:#059669;stop-opacity:1" />
    </linearGradient>
  </defs>
  
  <!-- Clean background -->
  <rect width="32" height="32" rx="7" fill="url(#cleanBg)" stroke="#cbd5e1" stroke-width="0.5"/>
  
  <!-- Central microphone -->
  <g transform="translate(16, 16)">
    <!-- Mic body -->
    <rect x="-3" y="-7" width="6" height="9" rx="3" fill="#ffffff" stroke="#d1d5db" stroke-width="0.5"/>
    
    <!-- Mesh lines -->
    <g opacity="0.6">
      <line x1="-2" y1="-5" x2="2" y2="-5" stroke="#9ca3af" stroke-width="0.3"/>
      <line x1="-2" y1="-3" x2="2" y2="-3" stroke="#9ca3af" stroke-width="0.3"/>
      <line x1="-2" y1="-1" x2="2" y2="-1" stroke="#9ca3af" stroke-width="0.3"/>
    </g>
    
    <!-- AI indicator -->
    <circle cx="2" cy="-5" r="1.5" fill="url(#primaryGrad)"/>
    <text x="2" y="-4" text-anchor="middle" fill="#ffffff" font-family="Arial" font-size="2" font-weight="bold">AI</text>
    
    <!-- Stand -->
    <rect x="-0.5" y="2" width="1" height="4" fill="#6b7280"/>
    <ellipse cx="0" cy="6" rx="4" ry="0.8" fill="#374151"/>
  </g>
  
  <!-- Sound waves -->
  <g stroke-linecap="round">
    <!-- Left waves -->
    <path d="M 6 16 Q 9 14 6 16 Q 9 18 6 16" stroke="url(#secondaryGrad)" stroke-width="0.8" fill="none"/>
    
    <!-- Right waves -->
    <path d="M 26 16 Q 23 14 26 16 Q 23 18 26 16" stroke="url(#secondaryGrad)" stroke-width="0.8" fill="none"/>
  </g>
  
  <!-- Signal dots -->
  <circle cx="10" cy="25" r="0.5" fill="url(#primaryGrad)" opacity="0.8"/>
  <circle cx="16" cy="27" r="0.5" fill="url(#primaryGrad)" opacity="0.8"/>
  <circle cx="22" cy="25" r="0.5" fill="url(#primaryGrad)" opacity="0.8"/>
</svg>